<?xml version="1.0" encoding="utf-8" ?><svg xmlns="http://www.w3.org/2000/svg" xmlns:xlink="http://www.w3.org/1999/xlink" width="82" height="81" viewBox="0 0 82 81"><path fill="white" d="M34.6737 8.86629C34.812 7.10989 34.7984 3.1785 35.8345 1.8795C36.3547 1.22744 37.1714 1.02354 37.9654 0.945365C39.8003 0.764701 44.597 0.636949 46.048 1.85245C47.4084 2.99198 47.251 7.06139 47.3976 8.81289C51.6835 9.9644 55.1659 11.7269 59.1254 13.622C61.06 12.0028 62.9975 10.4901 65.2071 9.26196C67.957 11.3422 70.4309 14.0676 72.7996 16.5706C71.3226 18.7012 69.7009 20.69 68.0493 22.6866C70.1147 26.5971 72.0428 29.5854 72.672 34.0869C75.818 34.6942 78.9194 35.2222 82 36.1285L82 45.5567C78.9519 46.2564 75.9158 46.8786 72.817 47.3081C71.772 51.5332 70.3256 55.0734 68.2197 58.881L72.815 64.7096C71.4367 66.5699 67.1375 71.2793 65.0774 72.0262C63.0157 71.718 60.793 69.1569 59.1359 67.9527C55.2521 69.9587 51.6051 71.4665 47.4176 72.7092C47.1134 75.5234 46.9048 78.4318 45.6054 81L36.2647 81C35.2797 78.2284 34.896 75.4022 34.6704 72.4856C30.697 71.9938 26.6021 69.9898 23.2118 67.9548C20.9714 69.2522 19.0043 71.0471 16.7722 72.3934C14.5342 70.5599 10.9292 67.1197 9.3072 64.7646C10.4981 63.1544 12.0655 61.5006 13.0599 59.7914C13.1942 59.5605 13.5661 58.977 13.5308 58.7353C13.2671 56.927 11.7139 54.6636 10.9971 52.8888C10.2646 51.075 9.70848 49.1674 9.21503 47.2765C6.65795 47.0764 3.56586 46.8122 1.36095 45.4308C0.686199 44.2128 0.843207 37.6834 1.12697 36.124C2.90656 34.62 6.83477 34.6172 9.11524 34.4314C9.87505 30.1313 11.8872 26.117 14.0832 22.4009C12.2028 20.7189 10.7588 18.6265 9.27197 16.6059C11.5016 14.0137 14.188 11.377 16.8162 9.18966C19.0105 10.4903 20.9949 12.0642 23.0063 13.6243C24.4114 12.9884 25.743 12.1431 27.147 11.4834C29.5748 10.3427 32.1016 9.60789 34.6737 8.86629ZM22.9387 16.5283C20.8432 15.3173 19.0731 13.599 16.9746 12.4343C15.5227 13.8202 14.0438 15.1759 12.7913 16.7501C13.9836 18.7852 15.6983 20.4527 16.8907 22.4549C15.787 24.7699 14.425 26.9303 13.4147 29.295C12.4309 31.5979 11.8454 33.9909 10.9893 36.3267C8.60844 36.8716 6.192 37.4361 3.75334 37.6463C3.86059 39.7282 3.92734 41.7528 3.76403 43.8334C6.1691 44.2461 8.7083 44.5309 11.0556 45.1858C12.4222 50.1509 14.1117 54.3448 16.9807 58.6344C15.6965 60.8781 13.9663 62.7988 12.4761 64.8984C14.0673 66.1844 15.5375 67.6134 16.8682 69.1675C18.4296 68.1172 21.1744 65.5505 23.0039 65.4867C25.4491 66.249 27.672 67.5446 30.0317 68.5198C31.983 69.3262 34.1193 69.8605 36.0109 70.7858C36.4082 70.9802 36.5768 71.1036 36.7833 71.5032C37.7093 73.2943 37.6338 75.9367 37.7974 77.9187L44.1377 77.9241C44.4825 75.4627 44.738 72.8591 45.4862 70.4802C47.7535 70.0262 49.8655 69.4582 51.9972 68.5541C54.1657 67.6344 56.7423 65.826 59.0355 65.5085C59.6276 65.4265 60.3415 65.792 60.8232 66.1133C61.7176 66.7098 64.0985 68.9855 65.136 68.7981C66.2065 68.6048 68.0707 66.1899 68.7838 65.324C69.0019 64.6232 68.9038 64.1038 68.56 63.4579C67.6534 61.7544 66.1138 60.5393 65.2091 58.7833C67.7922 54.2311 69.4919 50.2746 70.9075 45.2327C73.3813 44.6085 75.9247 44.2469 78.4407 43.8327C78.2499 41.7184 78.2053 39.6354 78.2826 37.5133C75.7362 37.2795 73.2396 36.9396 70.7647 36.2751C69.5536 30.1968 67.8262 27.9562 65.2221 22.6419C66.4472 20.4484 68.4324 18.6375 69.466 16.383C67.9053 15.2066 66.5235 13.8658 65.1185 12.5122C63.0092 13.7259 61.1417 15.4517 58.9755 16.5122C54.4501 13.9753 50.4079 12.1639 45.3495 10.8623C44.865 8.47523 44.306 5.87247 44.2525 3.4407C44.2428 3.42104 44.2342 3.40076 44.2234 3.38171C44.1352 3.22705 43.8639 3.08667 43.6964 3.0453C42.4694 2.74216 38.9492 2.76238 37.9103 3.41347C37.6757 5.3197 37.6834 9.18458 36.3301 10.5717C34.1949 11.6681 31.8358 12.2571 29.6186 13.1653C27.308 14.1118 25.1474 15.3728 22.9387 16.5283Z"/><path fill="white" d="M39.4107 22.5778C49.5057 21.6729 58.4041 29.1671 59.2294 39.2688C60.0547 49.3706 52.4905 58.2097 42.3826 58.9553C32.3868 59.6926 23.6669 52.2305 22.8508 42.2408C22.0347 32.2511 29.4278 23.4727 39.4107 22.5778ZM42.3815 56.4419C51.1 55.6959 57.5381 47.9851 56.7164 39.2734C55.8947 30.5618 48.1282 24.1909 39.4241 25.0883C30.8262 25.9747 24.5499 33.6258 25.3616 42.231C26.1733 50.8362 33.7696 57.1788 42.3815 56.4419Z"/><path fill="white" d="M49.3151 33.6269C49.9388 33.8927 50.1253 33.96 50.5216 34.5021C50.585 34.8759 50.5957 35.2297 50.4405 35.5837C49.7218 37.2232 39.8347 46.912 38.1939 47.5329C36.5435 47.345 33.8746 43.967 32.6763 42.7239C32.2792 42.2832 31.7263 41.6873 31.5328 41.1244C31.3392 40.5614 31.452 40.1877 31.6884 39.6847C33.8652 39.4724 36.5651 43.4049 38.4223 44.557C41.8326 40.7933 45.5103 36.9924 49.3151 33.6269Z"/><path fill="white" fill-opacity="0.96470588" d="M37.9103 3.41347C38.9492 2.76238 42.4694 2.74216 43.6964 3.0453C43.8639 3.08667 44.1352 3.22705 44.2234 3.38171C44.2342 3.40076 44.2428 3.42104 44.2525 3.4407C42.4701 3.82102 39.7136 3.69515 37.9103 3.41347Z"/></svg>